<svg width="50" height="50" viewBox="0 0 50 50" fill="none" xmlns="http://www.w3.org/2000/svg">
<path d="M25.0001 3.08887C23.5586 3.08887 21.6009 3.42744 19.9327 4.13477C18.2647 4.84229 16.9351 5.89707 16.4489 7.2041C16.3753 7.40238 16.3103 7.60374 16.2541 7.80762C15.3992 10.0173 16.9884 15.6089 18.7927 19.2576C18.0798 18.2137 17.3731 17.2003 16.7328 16.1944C15.1332 13.682 13.9353 11.081 14.372 8.23105C13.8437 7.93223 13.2412 7.77637 12.5002 7.77637C11.2306 7.77637 9.85855 8.43818 8.82467 9.47197C7.79078 10.5058 7.12896 11.8779 7.12896 13.1475C7.12896 13.8254 7.36695 14.5271 7.79234 15.2432C8.72369 17.3601 11.4616 20.5678 14.4437 23.4436C13.0616 22.4522 11.6146 21.4328 10.2918 20.3777C7.66851 18.2856 5.38394 16.0076 5.37183 13.17C4.99508 13.5378 4.66285 14.0165 4.38101 14.6023C3.83726 15.7336 3.50836 17.1993 3.41637 18.6707C3.32457 20.1422 3.46832 21.6219 3.79859 22.767C4.12896 23.9119 4.66637 24.6537 5.08082 24.861C5.11337 24.8774 5.14488 24.8958 5.17515 24.916C8.72232 27.2807 13.4062 27.7807 18.4146 28.3711C18.0553 27.5079 17.8707 26.5821 17.8712 25.6472C17.8712 21.7204 21.0734 18.5183 25.0002 18.5183C28.9269 18.5183 32.1291 21.7204 32.1291 25.6472C32.1291 26.6112 31.935 27.531 31.5857 28.3711C36.5941 27.7807 41.2781 27.2807 44.8252 24.916C44.8555 24.8957 44.887 24.8773 44.9196 24.8609C45.3339 24.6537 45.8713 23.9117 46.2018 22.7669C46.5319 21.6219 46.6758 20.1421 46.5839 18.6706C46.492 17.1992 46.163 15.7335 45.6191 14.6022C45.3375 14.0163 45.0051 13.5378 44.6285 13.1698C44.6163 16.0074 42.3316 18.2854 39.7085 20.3774C38.3856 21.4324 36.9386 22.4519 35.5564 23.4432C38.5386 20.5672 41.2765 17.3596 42.2078 15.2426C42.6333 14.5266 42.8712 13.8249 42.8712 13.1469C42.8712 11.8773 42.2094 10.5053 41.1756 9.47149C40.1417 8.43818 38.7696 7.77637 37.5001 7.77637C36.759 7.77637 36.1566 7.93213 35.6282 8.23105C36.0649 11.081 34.867 13.682 33.2674 16.1944C32.6271 17.2003 31.9205 18.2138 31.2075 19.2576C33.0119 15.6089 34.601 10.0174 33.746 7.80762C33.6898 7.60374 33.6247 7.40238 33.5511 7.2041C33.0655 5.89844 31.731 4.84277 30.0597 4.13506C28.3887 3.42734 26.4301 3.08887 25.0001 3.08887ZM25.1045 20.4033C24.3896 20.4033 23.6816 20.5441 23.021 20.8177C22.3605 21.0913 21.7603 21.4923 21.2547 21.9979C20.7491 22.5034 20.3481 23.1036 20.0745 23.7642C19.8008 24.4247 19.66 25.1327 19.66 25.8477C19.6613 26.773 19.8984 27.6827 20.349 28.4909C20.7995 29.2991 21.4486 29.9791 22.235 30.4668C21.999 29.8061 21.8773 29.1098 21.8751 28.4078C21.8751 27.6001 22.0334 26.8002 22.341 26.0539C22.6486 25.3077 23.0994 24.6296 23.6678 24.0584C24.2361 23.4873 24.9108 23.0342 25.6534 22.7251C26.3959 22.416 27.1918 22.2569 27.9956 22.2569C28.4412 22.2585 28.8853 22.3089 29.32 22.4073C28.8099 21.7816 28.167 21.2772 27.4379 20.9306C26.7089 20.584 25.9118 20.4039 25.1045 20.4032V20.4033ZM19.0329 29.5377C13.7786 29.9811 8.78512 30.2992 5.06158 32.0506C5.03494 32.0631 5.00769 32.0742 4.97994 32.084C4.50211 32.2525 4.0693 32.7103 3.76764 33.4482C3.76607 33.452 3.76471 33.4561 3.76305 33.46H3.80865C3.80865 33.9116 4.10689 34.5366 4.68599 35.2494C5.219 35.9055 5.94967 36.6107 6.68189 37.3379C6.77966 37.2375 6.87995 37.1396 6.98267 37.0443C7.89918 36.1938 9.0942 35.4316 10.4086 34.692C12.1956 33.6865 14.2061 32.7265 15.9809 31.7994C12.51 34.0058 9.01119 36.7475 7.85474 38.5004C8.5315 39.0516 9.51236 39.736 10.57 40.3024C11.818 40.9708 13.2101 41.5254 14.3673 41.7895C14.4181 41.5199 14.4912 41.2552 14.5861 40.9979C15.032 39.7945 15.8629 38.731 16.8216 37.6688C17.6053 36.8002 18.4814 35.9266 19.3437 35.0226H19.3496C17.8464 36.8798 16.3339 39.9278 16.059 42.067C18.9503 43.4122 23.4678 43.5187 25.0002 43.5187C26.5552 43.5187 31.1273 43.4542 33.9416 42.0681C33.6671 39.9289 32.1542 36.8801 30.6508 35.0226H30.6567C31.519 35.9265 32.395 36.8002 33.1787 37.6687C34.1374 38.731 34.9683 39.7946 35.414 40.9978C35.5085 41.2533 35.5813 41.5163 35.6318 41.7841C36.7355 41.5194 38.0273 40.9726 39.2216 40.309C40.3024 39.7086 41.3183 39.0167 42.0898 38.4177C40.8798 36.662 37.4361 33.9714 34.0192 31.7993C35.7941 32.7266 37.8046 33.6866 39.5915 34.6921C40.9059 35.4317 42.101 36.1938 43.0175 37.0444C43.1203 37.1397 43.2206 37.2376 43.3183 37.338C44.0504 36.6108 44.7812 35.9056 45.3142 35.2496C45.8933 34.5369 46.1916 33.9119 46.1916 33.4603H46.2372C46.2356 33.4563 46.2342 33.4522 46.2326 33.4485C45.9308 32.7105 45.4982 32.2528 45.0203 32.0843C44.9925 32.0745 44.9653 32.0634 44.9386 32.0509C41.215 30.2995 36.2216 29.9813 30.9672 29.538C30.6482 30.0246 30.2713 30.4707 29.8448 30.8664C31.2672 31.2836 32.5196 31.9244 33.4339 32.8389L32.1912 34.0816C30.9395 32.8296 27.9786 31.9951 25.0001 31.9951C22.0215 31.9951 19.0606 32.8296 17.8089 34.0813L16.5662 32.8386C17.4802 31.9243 18.7324 31.2835 20.1544 30.8663C19.7283 30.4704 19.3517 30.0243 19.033 29.5377H19.0329ZM46.539 36.5235C45.8753 37.3108 45.0894 38.0509 44.3713 38.7688C44.3637 38.7767 44.3551 38.7847 44.3473 38.7923C44.4961 39.128 44.5934 39.481 44.6208 39.8536C45.7126 39.1624 46.3367 37.9088 46.539 36.5235ZM3.46099 36.5237C3.66334 37.909 4.28756 39.1624 5.37916 39.8536C5.40621 39.4855 5.50142 39.1365 5.64713 38.8045C5.63013 38.7816 5.61158 38.7588 5.59537 38.7358C4.88599 38.0281 4.11431 37.2991 3.46099 36.5237ZM42.8694 40.0426C42.0715 40.6406 41.1126 41.2691 40.0754 41.8453C38.8325 42.5359 37.5005 43.1471 36.1913 43.468C36.5807 43.5564 37.0119 43.6047 37.5001 43.6047C38.8558 43.6047 40.2688 43.1081 41.2903 42.3874C42.3118 41.6667 42.8711 40.761 42.8711 40.0739C42.8711 40.0637 42.8697 40.0529 42.8694 40.0426ZM7.1399 40.2353C7.21803 40.8985 7.76617 41.7218 8.70972 42.3876C9.73121 43.1083 11.1443 43.6048 12.5001 43.6048C12.9799 43.6048 13.4047 43.5579 13.7891 43.4724C12.4383 43.1545 11.0352 42.5456 9.7401 41.852C8.76412 41.3293 7.87564 40.7892 7.1398 40.2354L7.1399 40.2353ZM16.4177 44.0989C16.8354 44.8532 18.1656 45.6602 19.8416 46.1614C21.5365 46.6687 23.5199 46.9117 25.0001 46.9117C26.4691 46.9117 28.4532 46.6686 30.151 46.1613C31.8124 45.6649 33.1364 44.8684 33.568 44.1227C30.3003 45.3189 26.3883 45.2763 25.0001 45.2763C23.5885 45.2763 19.7042 45.2685 16.4177 44.0988V44.0989Z" fill="#FDE6C4"/>
</svg>
