<svg width="25" height="25" viewBox="0 0 25 25" fill="none" xmlns="http://www.w3.org/2000/svg">
<path d="M0 0V2.18038L9.19609 11.3992L6.50278 14.0899L5.876 14.718L6.47335 15.3134L12.0599 20.8977L10.7753 22.1817L17.3599 25L14.5389 18.4196L13.3132 19.6447L8.35348 14.6869L10.8899 12.1516L17.9997 19.2571L16.7445 20.51L23.3275 23.33L20.5081 16.7495L19.2531 18.0042L12.1434 10.8987L14.6812 8.36165L19.641 13.3195L18.417 14.5447L25 17.363L22.1789 10.7825L20.8943 12.0666L15.3078 6.48219L14.7106 5.88685L14.0838 6.51339L11.3888 9.20567L2.18121 0H0Z" fill="#33C5F3"/>
</svg>
