<svg width="22" height="12" viewBox="0 0 22 12" fill="none" xmlns="http://www.w3.org/2000/svg">
<path id="Vector" d="M1.22223 12C0.87593 12 0.585448 11.8848 0.350782 11.6544C0.116115 11.424 -0.000810585 11.1392 4.22914e-06 10.8C4.22914e-06 10.46 0.117338 10.1748 0.352004 9.9444C0.586671 9.714 0.876745 9.5992 1.22223 9.6C1.56852 9.6 1.859 9.7152 2.09367 9.9456C2.32834 10.176 2.44526 10.4608 2.44445 10.8C2.44445 11.14 2.32711 11.4252 2.09245 11.6556C1.85778 11.886 1.56771 12.0008 1.22223 12ZM1.22223 7.2C0.87593 7.2 0.585448 7.0848 0.350782 6.8544C0.116115 6.624 -0.000810585 6.3392 4.22914e-06 6C4.22914e-06 5.66 0.117338 5.3748 0.352004 5.1444C0.586671 4.914 0.876745 4.7992 1.22223 4.8C1.56852 4.8 1.859 4.9152 2.09367 5.1456C2.32834 5.376 2.44526 5.6608 2.44445 6C2.44445 6.34 2.32711 6.6252 2.09245 6.8556C1.85778 7.086 1.56771 7.2008 1.22223 7.2ZM1.22223 2.4C0.87593 2.4 0.585448 2.2848 0.350782 2.0544C0.116115 1.824 -0.000810585 1.5392 4.22914e-06 1.2C4.22914e-06 0.860004 0.117338 0.574804 0.352004 0.344404C0.586671 0.114004 0.876745 -0.000795847 1.22223 4.15224e-06C1.56852 4.15224e-06 1.859 0.115204 2.09367 0.345604C2.32834 0.576004 2.44526 0.860804 2.44445 1.2C2.44445 1.54 2.32711 1.8252 2.09245 2.0556C1.85778 2.286 1.56771 2.4008 1.22223 2.4ZM4.88889 12V9.6H22V12H4.88889ZM4.88889 7.2V4.8H22V7.2H4.88889ZM4.88889 2.4V4.15224e-06H22V2.4H4.88889Z" fill="#828282"/>
</svg>
